<svg width="50" height="180" viewBox="0 0 50 180" fill="none" xmlns="http://www.w3.org/2000/svg">
<path fill-rule="evenodd" clip-rule="evenodd" d="M47.4867 0.689264C47.2757 1.57229 46.601 1.64005 46.5941 0.778894C46.5899 0.252589 46.5397 0.236456 46.2843 0.678867C45.8807 1.37726 46.0592 1.52031 47.3927 1.56871C48.3497 1.60349 48.4683 1.52138 48.2128 0.999023C48.0111 0.586369 48.0461 0.330389 48.3212 0.208851C48.5764 0.0959177 48.5286 0.0181188 48.1932 0.000551402C47.8987 -0.0148649 47.581 0.294894 47.4867 0.689264ZM49.4784 0.937718C49.2668 1.82326 49.6851 2.82818 49.9471 2.06382C50.0375 1.80067 50.009 1.2715 49.8842 0.887884C49.6645 0.212794 49.651 0.214586 49.4784 0.937718ZM44.6597 1.97383C44.6754 2.39151 44.753 2.47648 44.8575 2.19074C44.9522 1.93189 44.9404 1.62249 44.8316 1.50346C44.7229 1.38443 44.6456 1.59596 44.6597 1.97383ZM43.078 3.10603C42.2244 3.73022 42.1072 4.81653 42.8592 5.13238C43.6512 5.46509 43.7671 5.39697 43.3482 4.84449C43.0459 4.44582 43.1019 4.23393 43.6138 3.84136C44.546 3.12683 44.0256 2.41302 43.078 3.10603ZM40.0482 5.66657C40.0482 5.84081 39.7168 6.09213 39.3113 6.2255C38.5976 6.45962 38.595 6.47646 39.2294 6.75611C39.6906 6.95939 39.9172 6.89235 39.9949 6.52953C40.0597 6.22801 40.3168 6.10325 40.6146 6.22801C41.0371 6.40584 41.0535 6.34955 40.7095 5.89603C40.2389 5.27507 40.0482 5.20911 40.0482 5.66657ZM36.1129 7.50613C35.537 8.09482 34.934 8.57666 34.7729 8.57666C34.6117 8.57666 34.4801 8.738 34.4801 8.93518C34.4801 9.13237 34.2868 9.2937 34.0507 9.2937C33.3979 9.2937 32.1208 10.7382 32.3062 11.267C32.3976 11.528 32.1785 11.8159 31.8077 11.922C31.3121 12.064 31.1998 12.297 31.3606 12.8516C31.5296 13.4342 31.4621 13.5439 31.0429 13.3679C30.4661 13.1255 29.1379 14.4295 28.0718 16.2848C27.7318 16.8764 27.2775 17.4823 27.062 17.6314C26.8464 17.7805 26.5733 18.3854 26.455 18.9758C26.3365 19.5663 26.1039 20.0492 25.9382 20.0492C25.7721 20.0492 25.6365 20.2912 25.6365 20.587C25.6365 20.8828 25.4891 21.1248 25.309 21.1248C25.1288 21.1248 24.9814 21.3668 24.9814 21.6626C24.9814 21.9584 24.7603 22.2004 24.4901 22.2004C24.138 22.2004 23.9988 22.594 23.9988 23.5907C23.9988 24.3888 23.7895 25.1707 23.5075 25.427C23.2373 25.6726 23.0162 26.1763 23.0162 26.5463C23.0162 26.9167 22.8688 27.2196 22.6887 27.2196C22.5085 27.2196 22.3611 27.552 22.3611 27.9578C22.3611 28.3636 22.2291 28.6067 22.068 28.4977C21.6779 28.2339 21.312 29.323 21.6137 29.8511C22.0644 30.6413 22.0218 31.4835 21.5026 32.0517C21.1463 32.4422 20.858 32.5099 20.5904 32.2668C20.3006 32.0033 20.1994 32.2256 20.1994 33.1269C20.1994 33.7952 20.3455 34.3125 20.524 34.2763C20.7021 34.2401 20.9046 34.4929 20.9737 34.8381C21.0425 35.1834 20.9409 35.4655 20.7473 35.4655C20.5541 35.4655 20.3959 35.2662 20.3959 35.0228C20.3959 34.779 20.1011 35.1819 19.7408 35.9176C19.3805 36.6537 19.0857 37.4173 19.0857 37.6152C19.0857 37.8131 18.7909 38.2978 18.4307 38.6922C17.7255 39.4641 17.5414 40.8433 18.1431 40.8433C18.3933 40.8433 18.4064 40.9864 18.1837 41.2915C17.9973 41.5467 17.9701 42.0483 18.1205 42.4566C18.465 43.392 18.4932 44.0807 18.185 44.0277C17.3157 43.8774 17.0622 44.1259 17.2499 44.9444C17.3603 45.4252 17.302 45.9192 17.1205 46.0418C16.939 46.1644 16.8807 46.6585 16.9911 47.1392C17.1451 47.8115 17.0615 48.0137 16.6295 48.0137C16.2761 48.0137 16.1346 48.2044 16.2483 48.5281C16.3475 48.8114 16.2653 49.1025 16.0658 49.1753C15.8667 49.2481 15.6757 50.0246 15.642 50.9012C15.6082 51.7781 15.4749 52.858 15.3459 53.3018C15.1838 53.8593 15.2444 54.1103 15.5427 54.1139C15.8808 54.1182 15.8752 54.1881 15.5169 54.4362C15.245 54.6247 15.1487 55.0069 15.2791 55.3791C15.4114 55.7555 15.2732 56.2775 14.9319 56.6902C14.4841 57.2315 14.4432 57.5115 14.737 58.0264C15.0157 58.5147 15.0121 58.7843 14.7223 59.1059C14.4255 59.4357 14.4832 59.653 14.9722 60.048C15.3275 60.3352 15.4252 60.5618 15.1933 60.5618C14.7399 60.5618 14.8156 62.3501 15.488 67.5056C15.888 70.5709 16.2899 72.0344 16.7317 72.0344C17.2201 72.0344 17.1248 74.4526 16.6181 74.9126C16.3541 75.1524 16.1379 75.7809 16.1379 76.3086C16.1379 76.8367 15.998 77.4222 15.827 77.6093C15.6561 77.7969 15.4556 78.5515 15.3816 79.2869C15.2283 80.8106 14.6499 81.7549 14.0295 81.4942C13.7364 81.3709 13.5395 81.8445 13.3875 83.0391C13.267 83.9867 12.968 85.0515 12.7226 85.4057C12.1986 86.1629 12.4138 87.4507 13.0646 87.4507C13.3135 87.4507 13.5176 87.612 13.5176 87.8092C13.5176 88.0064 13.286 88.1677 13.0027 88.1677C12.6696 88.1677 12.5091 88.4524 12.5477 88.9744C12.6588 90.4751 12.5405 90.6773 11.5523 90.6773C10.8973 90.6773 10.5697 90.8566 10.5697 91.2151C10.5697 91.5109 10.7171 91.7529 10.8973 91.7529C11.0774 91.7529 11.2248 92.1562 11.2248 92.6492C11.2248 93.1422 11.0774 93.5455 10.8973 93.5455C10.7171 93.5455 10.5697 93.3519 10.5697 93.1153C10.5697 92.7854 10.4796 92.7836 10.1845 93.1067C9.97294 93.3383 9.75218 94.7824 9.6942 96.3154C9.63656 97.8484 9.52617 99.4252 9.4492 99.8196C9.37256 100.214 9.29854 100.657 9.28478 100.805C9.27069 100.954 9.02962 101.074 8.74892 101.074C8.46822 101.074 8.31952 101.219 8.41909 101.395C8.51866 101.571 8.36636 102.418 8.08074 103.277C7.25109 105.773 7.44761 108.245 8.47576 108.245C8.74401 108.245 8.93202 108.614 8.93202 109.141C8.93202 109.699 8.7463 110.037 8.44071 110.037C7.96578 110.037 7.81052 110.611 7.93237 111.92C7.96447 112.264 7.85278 112.547 7.68442 112.547C7.51574 112.547 7.28253 113.201 7.16593 113.999C7.00576 115.095 7.08535 115.596 7.48888 116.038C7.98445 116.58 7.97658 116.643 7.38669 116.882C6.85673 117.097 6.76404 117.432 6.83839 118.87C6.88752 119.821 7.08994 120.658 7.28843 120.731C7.54685 120.825 7.54194 121.004 7.27074 121.361C7.06275 121.636 6.76076 121.771 6.59994 121.663C6.43879 121.554 6.21279 121.733 6.09782 122.061C5.98285 122.389 6.04902 122.766 6.24488 122.899C6.7827 123.263 6.72047 127.919 6.15514 129.655C6.07686 129.895 6.15383 130.187 6.32612 130.303C6.76993 130.604 6.71491 132.398 6.2462 132.911C5.9406 133.245 5.9406 133.437 6.2462 133.771C6.46237 134.008 6.63924 134.583 6.63924 135.05C6.63924 135.516 6.77714 136.18 6.94582 136.525C7.12367 136.889 7.13841 137.707 6.98087 138.471C6.82627 139.222 6.83315 139.705 6.99692 139.595C7.15512 139.488 7.19016 139.916 7.07487 140.547C6.93141 141.333 7.01067 141.819 7.32642 142.089C7.77024 142.469 7.9779 144.768 7.97331 149.251C7.97233 150.213 8.11448 151.293 8.28939 151.651C8.50196 152.086 8.48362 152.599 8.23403 153.199C7.97331 153.825 7.95726 154.513 8.18064 155.476C8.42826 156.544 8.39223 157.035 8.02146 157.647C7.59337 158.353 7.59893 158.437 8.07321 158.437C8.36537 158.437 8.62708 158.639 8.65426 158.885C8.80198 160.21 8.78364 160.446 8.50294 160.857C8.3038 161.149 8.32541 161.305 8.56452 161.305C8.76661 161.305 8.93202 161.709 8.93202 162.202C8.93202 162.695 8.78823 163.098 8.61267 163.098C8.41025 163.098 8.40337 163.415 8.59334 163.962C8.75842 164.438 8.89664 165.93 8.90057 167.279C8.91204 171.192 8.95724 171.702 9.29166 171.702C9.46558 171.702 9.57301 172.268 9.53043 172.958C9.46394 174.04 9.36011 174.184 8.78299 173.996C8.41451 173.876 7.37621 172.999 6.47547 172.046C5.57474 171.094 4.41853 170.202 3.90593 170.065C3.30129 169.903 3.11427 169.72 3.37368 169.545C3.65372 169.355 3.34649 168.752 2.34815 167.531C1.56435 166.572 0.892238 165.73 0.854899 165.661C0.817232 165.592 0.571907 165.753 0.309548 166.02C-0.0887396 166.424 -0.0979105 166.652 0.254522 167.401C0.486747 167.895 0.986244 168.605 1.36521 168.98C1.74384 169.356 2.05369 169.879 2.05369 170.145C2.05369 170.41 2.27478 170.627 2.545 170.627C2.81522 170.627 3.03631 170.833 3.03631 171.085C3.03631 171.337 3.47849 172.072 4.01893 172.72C4.55937 173.368 5.00155 173.985 5.00155 174.091C5.00155 174.44 7.22161 176.722 7.56192 176.722C7.74502 176.722 7.95366 176.528 8.02604 176.291C8.12791 175.956 8.21078 175.956 8.40009 176.291C8.53373 176.528 8.48001 176.722 8.28087 176.722C8.08173 176.722 8.40304 177.408 8.99523 178.245C9.5871 179.083 10.118 179.845 10.1747 179.938C10.2314 180.031 10.3987 179.893 10.5465 179.631C10.7348 179.298 10.8825 179.274 11.0394 179.552C11.554 180.463 12.7026 179.941 13.5995 178.386C14.095 177.528 14.5002 176.647 14.5002 176.428C14.5002 176.209 14.8097 175.849 15.188 175.627C15.68 175.339 15.8326 174.978 15.7245 174.359C15.6141 173.727 15.7193 173.495 16.1179 173.495C16.7795 173.495 17.4277 172.839 17.3124 172.286C17.2659 172.064 17.2957 172.022 17.3786 172.194C17.4615 172.366 17.9164 172.096 18.3894 171.594C19.3894 170.532 21.2878 168.635 22.4699 167.516C23.0345 166.981 23.2386 166.5 23.1174 165.992C22.971 165.38 23.0912 165.249 23.7967 165.249C24.5216 165.249 24.6539 165.091 24.6539 164.223C24.6539 163.339 24.7607 163.22 25.4246 163.359C25.9428 163.467 26.495 163.216 27.1101 162.592C27.6132 162.082 28.1225 161.664 28.2418 161.664C28.361 161.664 28.4288 160.978 28.3921 160.14C28.2644 157.202 27.6221 156.304 26.8062 157.921C26.3083 158.908 25.8583 159.185 25.5631 158.687C25.3735 158.367 25.2291 158.394 24.9942 158.794C24.722 159.258 24.6208 159.242 24.2402 158.672C23.8409 158.074 23.7607 158.067 23.3683 158.584C23.1305 158.898 22.7961 159.154 22.6251 159.154C22.4541 159.154 22.0932 159.396 21.823 159.692C21.5292 160.014 21.4804 160.23 21.7021 160.23C21.9055 160.23 21.9812 160.391 21.8698 160.588C21.7585 160.786 21.3815 160.947 21.0316 160.947C20.6566 160.947 20.3959 161.192 20.3959 161.545C20.3959 161.873 20.2983 162.035 20.1791 161.905C19.7844 161.473 16.1379 164.831 16.1379 165.626C16.1379 165.813 15.5516 166.608 14.8353 167.392C13.1206 169.269 12.5087 169.041 12.5821 166.554C12.6774 163.316 12.4603 158.27 12.2097 157.9C12.0764 157.702 11.8664 156.015 11.743 154.149C11.6195 152.284 11.38 150.575 11.2107 150.352C11.0414 150.129 10.9877 149.853 11.0915 149.74C11.4017 149.4 11.4737 145.878 11.1744 145.676C11.022 145.573 10.8868 144.893 10.8743 144.165C10.8616 143.437 10.7328 142.519 10.5877 142.125C10.443 141.73 10.4502 141.142 10.6041 140.818C10.7888 140.428 10.7217 140.081 10.4059 139.794C10.0791 139.497 10.0214 139.17 10.2235 138.757C10.5979 137.991 10.5039 130.114 10.1203 130.114C9.96311 130.114 10.0221 129.867 10.2513 129.564C10.572 129.142 10.5818 128.831 10.2933 128.22C10.0869 127.783 9.92905 126.699 9.9428 125.812C9.95623 124.925 9.89171 123.724 9.79902 123.144C9.70665 122.564 9.79181 121.761 9.98833 121.359C10.1849 120.957 10.3896 120.222 10.443 119.725C10.4967 119.228 10.6136 118.183 10.7027 117.402C10.8635 115.994 10.4354 114.884 9.87762 115.261C9.71778 115.369 9.5871 115.304 9.5871 115.116C9.5871 114.928 9.78984 114.69 10.0375 114.586C10.2851 114.482 10.593 113.626 10.722 112.684C10.9153 111.275 10.8557 110.891 10.3853 110.515C9.87828 110.108 9.87205 110.033 10.3303 109.84C11.4207 109.382 11.9477 107.307 11.702 104.438C11.5661 102.852 11.2749 101.539 10.9893 101.226C10.7233 100.935 10.5894 100.46 10.6912 100.169C10.9985 99.2929 11.5497 99.5736 11.5903 100.626C11.6162 101.295 11.6784 101.399 11.7842 100.95C11.8697 100.586 12.1743 99.9891 12.4609 99.6227C13.0181 98.9107 13.1393 98.3733 13.4072 95.4277C13.5254 94.1241 13.722 93.5455 14.0456 93.5455C14.5546 93.5455 14.3688 91.972 13.7599 91.1255C13.53 90.8061 13.59 90.6773 13.9689 90.6773C14.2611 90.6773 14.5002 90.4353 14.5002 90.1396C14.5002 89.8438 14.7059 89.6018 14.9571 89.6018C15.3112 89.6018 15.3547 89.3157 15.1513 88.3283C14.9637 87.417 14.9967 87.0943 15.2679 87.1943C15.6672 87.3413 16.4654 85.6301 16.4654 84.6273C16.4654 84.3029 16.8339 83.6023 17.2843 83.0707C17.7346 82.5393 18.1031 81.714 18.1031 81.2372C18.1031 79.6203 18.5106 78.1292 18.9528 78.1292C19.1997 78.1292 19.314 78.354 19.2128 78.6419C18.9541 79.3804 19.973 81.5358 20.8201 82.0421C21.2174 82.2791 21.9036 83.109 22.3451 83.8863C22.7866 84.6636 23.3395 85.2996 23.5733 85.2996C23.8072 85.2996 23.9988 85.5229 23.9988 85.7961C23.9988 86.6089 25.5916 87.5407 26.5369 87.2811C27.0715 87.1341 27.4743 87.2209 27.6476 87.5195C27.8513 87.8716 27.9204 87.8318 27.9244 87.361C27.9329 86.2661 29.379 86.4296 30.5676 87.6601C31.5044 88.6299 33.7068 88.9228 33.3959 88.0365C33.2806 87.7077 33.6468 87.4077 34.5073 87.1255C35.7608 86.7146 35.9642 86.3647 35.8426 84.8306C35.8102 84.4233 35.9321 84.2778 36.1698 84.4384C36.4289 84.6137 36.4902 84.4506 36.3638 83.9214C36.2622 83.4962 36.2927 83.1485 36.4316 83.1485C36.7031 83.1485 37.7555 80.3606 37.7555 79.6411C37.7555 79.4009 37.5344 79.2048 37.2642 79.2048C36.5979 79.2048 36.6435 78.492 37.346 77.9241C37.8053 77.5527 37.838 77.3702 37.5098 77.006C37.2848 76.7561 37.1004 76.1806 37.1004 75.7271C37.1004 75.2736 36.9517 74.9025 36.7702 74.9025C36.5698 74.9025 36.594 74.6322 36.8321 74.2145C37.1394 73.6764 37.1354 73.4086 36.8141 72.9852C36.5881 72.6873 36.3415 71.9085 36.2661 71.255C36.1905 70.6014 35.9789 70.012 35.7958 69.9449C35.6124 69.8783 35.4627 69.6033 35.4627 69.334C35.4627 69.0644 34.9101 68.4015 34.2344 67.8605C33.559 67.3195 32.8162 66.6265 32.584 66.3203C32.2102 65.8281 32.1215 65.8259 31.8159 66.2999C31.5257 66.7502 31.4995 66.7366 31.6528 66.2139C31.849 65.5456 30.8326 64.6948 30.3763 65.1455C30.2339 65.2864 30.2384 65.1727 30.3871 64.8927C30.5863 64.517 30.5185 64.4417 30.1287 64.6055C29.7576 64.7615 29.6544 64.6729 29.7825 64.308C30.0233 63.621 29.0331 63.6304 27.814 64.3262C27.2919 64.6242 26.5336 64.7644 26.0944 64.6435C25.4537 64.4675 25.309 64.5654 25.309 65.1749C25.309 65.8245 25.2015 65.8772 24.4865 65.5796C23.781 65.286 23.537 65.3939 22.7669 66.3415C22.2737 66.9488 21.4643 67.6755 20.9691 67.9566C20.3549 68.3051 20.0684 68.75 20.0684 69.3548C20.0684 70.4164 19.4231 70.5401 19.1807 69.5248C19.0864 69.1304 18.8791 68.8077 18.7199 68.8077C18.5607 68.8077 18.4415 68.0416 18.4549 67.1048C18.4926 64.4378 18.0009 61.9959 17.4261 61.9959C16.9485 61.9959 17.0678 60.8647 17.5918 60.422C17.9171 60.1474 18.128 58.9144 18.2731 56.441C18.3884 54.4706 18.6314 52.6626 18.8126 52.4234C18.9937 52.1843 19.0432 51.8132 18.922 51.5989C18.8008 51.3845 18.88 50.974 19.0975 50.6868C19.3763 50.3193 19.3848 50.1648 19.1257 50.1648C18.5987 50.1648 18.6724 49.2344 19.2495 48.6027C19.918 47.8706 19.8735 47.6924 18.922 47.2966C18.4716 47.1091 18.1149 46.7503 18.129 46.4989C18.1493 46.1393 18.1899 46.1375 18.3199 46.49C18.6953 47.5078 20.0684 46.4538 20.0684 45.1477C20.0684 44.7261 20.2436 44.0291 20.4578 43.5982C20.6717 43.1676 20.8774 42.5732 20.9147 42.2774C20.9517 41.9816 21.1591 40.8523 21.3752 39.7678C21.5911 38.6832 21.8308 37.2312 21.9078 36.5411C22.1145 34.6919 22.2697 34.39 23.0162 34.39C23.388 34.39 23.7728 34.1078 23.8721 33.7626C23.971 33.4173 24.2163 32.7318 24.4168 32.2389C24.6172 31.7459 24.8062 31.0633 24.8363 30.7216C24.8668 30.38 25.0866 29.8436 25.3247 29.5292C25.6863 29.0524 25.6801 28.9036 25.288 28.6318C24.9018 28.3644 24.9202 28.3052 25.3909 28.3005C25.7063 28.2977 25.985 28.013 26.0106 27.6678C26.0538 27.0823 26.0951 26.584 26.2356 24.9577C26.2664 24.601 26.4256 24.3999 26.5897 24.5107C26.7534 24.6214 27.1258 24.6121 27.4167 24.4899C27.8078 24.3257 27.8543 24.1468 27.5945 23.804C27.3348 23.4616 27.397 23.2146 27.8317 22.8597C28.5159 22.3004 30.5496 19.1171 30.5496 18.6048C30.5496 18.4133 30.7707 18.2567 31.0409 18.2567C31.6338 18.2567 31.7006 17.2969 31.1228 17.0796C30.8978 16.9947 30.9731 16.9685 31.2908 17.0208C32.0756 17.1506 32.7402 15.8191 32.0376 15.524C31.2915 15.2107 31.4228 14.5564 32.1876 14.7754C32.5483 14.8787 32.7608 14.8167 32.6596 14.6381C32.5587 14.4592 32.769 14.313 33.1273 14.313C33.8902 14.313 34.8974 13.3281 34.6262 12.8473C34.523 12.6648 34.6527 12.4254 34.9144 12.3153C35.1761 12.2056 35.354 11.8435 35.3097 11.5111C35.2655 11.1788 35.2924 11.1089 35.37 11.3552C35.6052 12.1041 36.2196 11.8345 37.555 10.3976C38.7594 9.10153 38.9575 8.01092 37.9088 8.45154C37.2468 8.72939 37.3002 7.97364 37.9716 7.56206C38.4607 7.2627 38.4472 7.18956 37.8377 6.83212C37.2665 6.49762 36.9959 6.60338 36.1129 7.50613ZM33.4087 67.9487C33.3 68.0677 33.0173 68.0807 32.7811 67.977C32.5198 67.8627 32.5974 67.7777 32.979 67.7605C33.3242 67.7451 33.5174 67.8297 33.4087 67.9487ZM30.9937 69.7786C31.148 70.0729 31.5532 70.5756 31.8945 70.8954C32.2358 71.2152 32.5148 71.6712 32.5148 71.9093C32.5148 72.147 32.7074 72.555 32.9426 72.8156C33.299 73.2103 33.7192 74.0485 33.9888 74.9025C34.0199 75.0011 34.1597 75.3661 34.2993 75.7139C34.4391 76.0613 34.4156 76.5453 34.2472 76.7894C33.8129 77.4183 33.7916 78.9079 34.2092 79.4586C34.4709 79.8042 34.3667 80.2376 33.8073 81.1314C32.8581 82.648 31.4592 83.4575 29.567 83.5862C28.2116 83.6784 28.0642 83.7838 27.7351 84.8984C27.4573 85.8399 27.3292 85.9732 27.1619 85.4964C27.0436 85.1587 26.9467 84.5729 26.9467 84.1946C26.9467 83.8164 26.7626 83.5016 26.5373 83.4951C25.9657 83.4783 24.515 82.1052 24.7721 81.8241C25.0129 81.5606 24.0466 80.2803 23.6068 80.2803C23.0673 80.2803 22.1335 79.033 21.7549 77.8069C21.2914 76.3058 21.2678 74.9025 21.706 74.9025C21.8862 74.9025 22.0336 74.5749 22.0336 74.1744C22.0336 73.7736 22.2547 73.353 22.5249 73.2397C22.7951 73.1261 23.0162 72.8439 23.0162 72.6123C23.0162 72.3811 23.4584 72.0089 23.9988 71.7856C24.6582 71.5131 24.9814 71.1334 24.9814 70.6315C24.9814 70.0812 25.1888 69.8833 25.7652 69.8833C26.1963 69.8833 26.6313 69.6488 26.7318 69.362C26.9807 68.6521 30.5886 69.0046 30.9937 69.7786ZM30.7733 86.4425C30.6688 86.7283 30.5912 86.6433 30.5755 86.2256C30.5614 85.8477 30.6387 85.6362 30.7474 85.7552C30.8562 85.8743 30.868 86.1837 30.7733 86.4425ZM10.8301 104.839C10.8969 105.306 10.8373 105.406 10.6601 105.126C10.5101 104.889 10.0231 104.528 9.57792 104.325C8.78168 103.96 8.7843 103.955 9.74792 104.038C10.4423 104.097 10.7577 104.331 10.8301 104.839Z" fill="#6966FF"/>
</svg>
