<svg width="512" height="512" viewBox="0 0 512 512" fill="none" xmlns="http://www.w3.org/2000/svg">
<rect width="512" height="512" rx="100" fill="black"/>
<path fill-rule="evenodd" clip-rule="evenodd" d="M315.523 126.317H372.596L188.843 383.673H132.718L315.523 126.317ZM248.476 202.151L194.69 126.317H137.395L220.414 243.515L248.476 202.151ZM234.406 202.297L220.209 223.224L159.753 137.878H188.716L234.406 202.297ZM155.111 372.111H182.892L350.135 137.878H321.492L155.111 372.111Z" fill="white"/>
<path fill-rule="evenodd" clip-rule="evenodd" d="M328.064 372.747H355.82L290.696 280.271L276.284 300.859L328.064 372.747ZM262.105 300.954L322.144 384.309H378.102L290.667 260.151L262.105 300.954Z" fill="white"/>
<path fill-rule="evenodd" clip-rule="evenodd" d="M258.508 77.5948C258.508 75.8845 257.122 74.498 255.412 74.498C253.701 74.498 252.315 75.8845 252.315 77.5948V77.7908C252.315 79.5011 253.701 80.8876 255.412 80.8876C257.122 80.8876 258.508 79.5011 258.508 77.7908V77.5948ZM258.508 109.152C258.508 107.441 257.122 106.055 255.412 106.055C253.701 106.055 252.315 107.441 252.315 109.152V109.544C252.315 111.254 253.701 112.64 255.412 112.64C257.122 112.64 258.508 111.254 258.508 109.544V109.152ZM258.508 140.904C258.508 139.194 257.122 137.808 255.412 137.808C253.701 137.808 252.315 139.194 252.315 140.904V141.296C252.315 143.007 253.701 144.393 255.412 144.393C257.122 144.393 258.508 143.007 258.508 141.296V140.904ZM258.508 172.657C258.508 170.947 257.122 169.56 255.412 169.56C253.701 169.56 252.315 170.947 252.315 172.657V172.853C252.315 174.563 253.701 175.95 255.412 175.95C257.122 175.95 258.508 174.563 258.508 172.853V172.657ZM258.508 329.317C258.508 327.606 257.122 326.22 255.412 326.22C253.701 326.22 252.315 327.606 252.315 329.317V329.526C252.315 331.236 253.701 332.623 255.412 332.623C257.122 332.623 258.508 331.236 258.508 329.526V329.317ZM258.508 362.993C258.508 361.282 257.122 359.896 255.412 359.896C253.701 359.896 252.315 361.282 252.315 362.993V363.411C252.315 365.121 253.701 366.508 255.412 366.508C257.122 366.508 258.508 365.121 258.508 363.411V362.993ZM258.508 396.878C258.508 395.167 257.122 393.781 255.412 393.781C253.701 393.781 252.315 395.167 252.315 396.878V397.296C252.315 399.006 253.701 400.393 255.412 400.393C257.122 400.393 258.508 399.006 258.508 397.296V396.878ZM258.508 430.763C258.508 429.053 257.122 427.666 255.412 427.666C253.701 427.666 252.315 429.053 252.315 430.763V431.181C252.315 432.891 253.701 434.278 255.412 434.278C257.122 434.278 258.508 432.891 258.508 431.181V430.763ZM258.508 464.648C258.508 462.938 257.122 461.551 255.412 461.551C253.701 461.551 252.315 462.938 252.315 464.648V464.857C252.315 466.567 253.701 467.954 255.412 467.954C257.122 467.954 258.508 466.567 258.508 464.857V464.648ZM467.883 255.482C467.883 257.192 466.497 258.579 464.787 258.579H464.599C462.889 258.579 461.502 257.192 461.502 255.482C461.502 253.772 462.889 252.385 464.599 252.385H464.787C466.497 252.385 467.883 253.772 467.883 255.482ZM437.717 255.482C437.717 257.192 436.331 258.579 434.621 258.579H434.246C432.536 258.579 431.149 257.192 431.149 255.482C431.149 253.772 432.536 252.385 434.246 252.385H434.621C436.331 252.385 437.717 253.772 437.717 255.482ZM407.364 255.482C407.364 257.192 405.978 258.579 404.268 258.579H403.893C402.182 258.579 400.796 257.192 400.796 255.482C400.796 253.772 402.182 252.385 403.893 252.385H404.268C405.978 252.385 407.364 253.772 407.364 255.482ZM377.011 255.482C377.011 257.192 375.625 258.579 373.914 258.579H373.54C371.829 258.579 370.443 257.192 370.443 255.482C370.443 253.772 371.829 252.385 373.54 252.385H373.914C375.625 252.385 377.011 253.772 377.011 255.482ZM346.658 255.482C346.658 257.192 345.271 258.579 343.561 258.579H343.186C341.476 258.579 340.09 257.192 340.09 255.482C340.09 253.772 341.476 252.385 343.186 252.385H343.561C345.271 252.385 346.658 253.772 346.658 255.482ZM316.305 255.482C316.305 257.192 314.918 258.579 313.208 258.579H313.02C311.31 258.579 309.924 257.192 309.924 255.482C309.924 253.772 311.31 252.385 313.02 252.385H313.208C314.918 252.385 316.305 253.772 316.305 255.482ZM199.127 258.579C200.838 258.579 202.224 257.192 202.224 255.482C202.224 253.772 200.838 252.385 199.127 252.385H198.938C197.228 252.385 195.842 253.772 195.842 255.482C195.842 257.192 197.228 258.579 198.938 258.579H199.127ZM168.698 258.579C170.408 258.579 171.795 257.192 171.795 255.482C171.795 253.772 170.408 252.385 168.698 252.385H168.32C166.61 252.385 165.223 253.772 165.223 255.482C165.223 257.192 166.61 258.579 168.32 258.579H168.698ZM138.079 258.579C139.79 258.579 141.176 257.192 141.176 255.482C141.176 253.772 139.79 252.385 138.079 252.385H137.701C135.991 252.385 134.605 253.772 134.605 255.482C134.605 257.192 135.991 258.579 137.701 258.579H138.079ZM107.461 258.579C109.171 258.579 110.558 257.192 110.558 255.482C110.558 253.772 109.171 252.385 107.461 252.385H107.083C105.372 252.385 103.986 253.772 103.986 255.482C103.986 257.192 105.372 258.579 107.083 258.579H107.461ZM76.8423 258.579C78.5526 258.579 79.9391 257.192 79.9391 255.482C79.9391 253.772 78.5526 252.385 76.8423 252.385H76.4643C74.754 252.385 73.3675 253.772 73.3675 255.482C73.3675 257.192 74.754 258.579 76.4643 258.579H76.8423ZM46.2238 258.579C47.9341 258.579 49.3205 257.192 49.3205 255.482C49.3205 253.772 47.9341 252.385 46.2238 252.385H46.0348C44.3245 252.385 42.938 253.772 42.938 255.482C42.938 257.192 44.3245 258.579 46.0348 258.579H46.2238Z" fill="#55555E"/>
<path fill-rule="evenodd" clip-rule="evenodd" d="M255.203 43.0101H255.617C257.328 43.0118 258.713 44.3996 258.711 46.1099C258.71 47.8202 257.322 49.2053 255.611 49.2037H255.209C253.499 49.2053 252.111 47.8202 252.11 46.1099C252.108 44.3996 253.493 43.0118 255.203 43.0101ZM225.934 48.1441C226.197 49.8339 225.041 51.4177 223.352 51.6815L222.955 51.7438C221.266 52.011 219.68 50.8581 219.413 49.1688C219.146 47.4795 220.299 45.8935 221.988 45.6263L222.396 45.5622C224.086 45.2983 225.67 46.4542 225.934 48.1441ZM284.887 48.1441C285.151 46.4542 286.735 45.2983 288.425 45.5622L288.833 45.6263C290.522 45.8935 291.675 47.4795 291.408 49.1688C291.141 50.8581 289.555 52.011 287.865 51.7438L287.469 51.6815C285.779 51.4177 284.623 49.8339 284.887 48.1441ZM316.941 55.2778C317.468 53.6506 319.214 52.7584 320.841 53.285L321.233 53.4124C322.859 53.9422 323.748 55.6899 323.218 57.3161C322.688 58.9423 320.941 59.831 319.315 59.3012L318.934 59.1776C317.307 58.651 316.414 56.905 316.941 55.2778ZM193.88 55.2778C194.406 56.905 193.514 58.651 191.887 59.1776L191.506 59.3012C189.88 59.8311 188.132 58.9423 187.602 57.3161C187.073 55.6899 187.961 53.9422 189.588 53.4124L189.98 53.285C191.607 52.7584 193.353 53.6506 193.88 55.2778ZM347.468 67.3717C348.244 65.8477 350.108 65.2414 351.632 66.0177L351.999 66.2049C353.522 66.9841 354.124 68.85 353.345 70.3725C352.566 71.895 350.7 72.4975 349.178 71.7184L348.822 71.5366C347.298 70.7604 346.691 68.8957 347.468 67.3717ZM163.353 67.3717C164.129 68.8957 163.523 70.7604 161.999 71.5366L161.643 71.7184C160.121 72.4976 158.255 71.895 157.476 70.3725C156.696 68.85 157.299 66.9841 158.821 66.2049L159.188 66.0177C160.712 65.2415 162.577 65.8477 163.353 67.3717ZM135.106 84.109C136.111 85.4928 135.804 87.4294 134.42 88.4344L134.097 88.6696C132.715 89.6773 130.778 89.374 129.77 87.9922C128.762 86.6103 129.066 84.6731 130.448 83.6654L130.78 83.4232C132.164 82.4181 134.101 82.7251 135.106 84.109ZM375.715 84.109C376.72 82.7252 378.657 82.4181 380.04 83.4232L380.373 83.6654C381.755 84.6731 382.058 86.6103 381.051 87.9922C380.043 89.374 378.106 89.6773 376.724 88.6696L376.401 88.4344C375.017 87.4294 374.71 85.4928 375.715 84.109ZM109.816 105.05C111.024 106.261 111.022 108.222 109.812 109.43L109.529 109.712C108.321 110.923 106.36 110.925 105.15 109.717C103.939 108.509 103.937 106.548 105.145 105.337L105.436 105.046C106.647 103.838 108.608 103.84 109.816 105.05ZM401.005 105.05C402.213 103.84 404.174 103.838 405.384 105.046L405.675 105.337C406.884 106.548 406.882 108.509 405.671 109.717C404.461 110.925 402.5 110.923 401.292 109.712L401.009 109.43C399.798 108.222 399.797 106.261 401.005 105.05ZM88.0914 129.671C89.4733 130.679 89.7766 132.616 88.7688 133.998L88.5337 134.321C87.5286 135.705 85.592 136.012 84.2082 135.007C82.8244 134.002 82.5174 132.065 83.5224 130.681L83.7646 130.348C84.7724 128.966 86.7095 128.663 88.0914 129.671ZM422.729 129.671C424.111 128.663 426.048 128.966 427.056 130.348L427.298 130.681C428.303 132.065 427.996 134.002 426.612 135.007C425.229 136.012 423.292 135.705 422.287 134.321L422.052 133.998C421.044 132.616 421.347 130.679 422.729 129.671ZM440.349 157.376C441.871 156.597 443.737 157.2 444.517 158.722L444.704 159.089C445.48 160.613 444.874 162.478 443.35 163.254C441.826 164.03 439.961 163.424 439.185 161.9L439.003 161.544C438.224 160.021 438.826 158.155 440.349 157.376ZM70.4717 157.376C71.9942 158.155 72.5968 160.021 71.8176 161.544L71.6358 161.9C70.8596 163.424 68.9949 164.03 67.4709 163.254C65.9469 162.478 65.3407 160.613 66.1169 159.089L66.3041 158.722C67.0833 157.2 68.9492 156.597 70.4717 157.376ZM57.4154 187.503C59.0415 188.033 59.9303 189.781 59.4005 191.407L59.2769 191.788C58.7502 193.415 57.0042 194.307 55.377 193.78C53.7498 193.254 52.8576 191.508 53.3842 189.88L53.5116 189.488C54.0414 187.862 55.7892 186.973 57.4154 187.503ZM453.405 187.503C455.032 186.973 456.779 187.862 457.309 189.488L457.436 189.88C457.963 191.508 457.071 193.254 455.444 193.78C453.816 194.307 452.07 193.415 451.544 191.788L451.42 191.407C450.89 189.781 451.779 188.033 453.405 187.503ZM49.2681 219.314C50.9574 219.581 52.1102 221.167 51.8431 222.856L51.7808 223.252C51.5169 224.942 49.9331 226.098 48.2433 225.834C46.5535 225.57 45.3975 223.987 45.6614 222.297L45.7255 221.889C45.9927 220.199 47.5788 219.046 49.2681 219.314ZM461.553 219.314C463.242 219.046 464.828 220.199 465.095 221.889L465.159 222.297C465.423 223.987 464.267 225.57 462.577 225.834C460.888 226.098 459.304 224.942 459.04 223.252L458.978 222.856C458.71 221.167 459.863 219.581 461.553 219.314ZM46.2091 252.01C47.9194 252.012 49.3046 253.4 49.3029 255.11V255.512C49.3046 257.222 47.9194 258.61 46.2091 258.612C44.4988 258.614 43.111 257.228 43.1094 255.518V255.104C43.111 253.394 44.4988 252.009 46.2091 252.01ZM464.612 252.01C466.322 252.009 467.71 253.394 467.711 255.104V255.518C467.71 257.228 466.322 258.614 464.612 258.612C462.901 258.61 461.516 257.222 461.518 255.512V255.11C461.516 253.4 462.901 252.012 464.612 252.01ZM48.2433 284.788C49.9331 284.524 51.5169 285.68 51.7808 287.37L51.8431 287.766C52.1102 289.455 50.9574 291.041 49.2681 291.309C47.5787 291.576 45.9927 290.423 45.7255 288.734L45.6614 288.325C45.3975 286.636 46.5535 285.052 48.2433 284.788ZM462.577 284.788C464.267 285.052 465.423 286.636 465.159 288.325L465.095 288.734C464.828 290.423 463.242 291.576 461.553 291.309C459.863 291.041 458.71 289.455 458.978 287.766L459.04 287.37C459.304 285.68 460.888 284.524 462.577 284.788ZM55.377 316.842C57.0042 316.315 58.7502 317.207 59.2769 318.835L59.4005 319.215C59.9303 320.841 59.0415 322.589 57.4154 323.119C55.7892 323.649 54.0414 322.76 53.5116 321.134L53.3842 320.742C52.8576 319.115 53.7498 317.368 55.377 316.842ZM455.444 316.842C457.071 317.368 457.963 319.115 457.436 320.742L457.309 321.134C456.779 322.76 455.032 323.649 453.405 323.119C451.779 322.589 450.89 320.841 451.42 319.215L451.544 318.835C452.07 317.207 453.816 316.315 455.444 316.842ZM67.4709 347.368C68.9949 346.592 70.8596 347.198 71.6359 348.722L71.8176 349.078C72.5968 350.601 71.9942 352.467 70.4717 353.246C68.9492 354.025 67.0833 353.423 66.3042 351.9L66.1169 351.533C65.3407 350.009 65.9469 348.145 67.4709 347.368ZM443.35 347.368C444.874 348.145 445.48 350.009 444.704 351.533L444.517 351.9C443.737 353.423 441.871 354.025 440.349 353.246C438.827 352.467 438.224 350.601 439.003 349.078L439.185 348.722C439.961 347.198 441.826 346.592 443.35 347.368ZM84.2082 375.616C85.592 374.611 87.5286 374.918 88.5337 376.301L88.7688 376.625C89.7766 378.006 89.4733 379.944 88.0914 380.951C86.7095 381.959 84.7724 381.656 83.7646 380.274L83.5224 379.941C82.5174 378.557 82.8244 376.621 84.2082 375.616ZM426.612 375.616C427.996 376.621 428.303 378.557 427.298 379.941L427.056 380.274C426.048 381.656 424.111 381.959 422.729 380.951C421.347 379.944 421.044 378.006 422.052 376.625L422.287 376.301C423.292 374.918 425.229 374.611 426.612 375.616ZM105.15 400.906C106.36 399.697 108.321 399.699 109.529 400.91L109.812 401.192C111.022 402.401 111.024 404.361 109.816 405.572C108.608 406.782 106.647 406.784 105.436 405.576L105.145 405.285C103.937 404.074 103.939 402.114 105.15 400.906ZM405.671 400.906C406.882 402.114 406.884 404.074 405.675 405.285L405.384 405.576C404.174 406.784 402.213 406.782 401.005 405.572C399.797 404.361 399.798 402.401 401.009 401.192L401.292 400.91C402.5 399.699 404.461 399.697 405.671 400.906ZM129.77 422.63C130.778 421.248 132.715 420.945 134.097 421.953L134.42 422.188C135.804 423.193 136.111 425.129 135.106 426.513C134.101 427.897 132.164 428.204 130.78 427.199L130.448 426.957C129.066 425.949 128.762 424.012 129.77 422.63ZM381.051 422.63C382.058 424.012 381.755 425.949 380.373 426.957L380.04 427.199C378.656 428.204 376.72 427.897 375.715 426.513C374.71 425.129 375.017 423.193 376.401 422.188L376.724 421.953C378.106 420.945 380.043 421.248 381.051 422.63ZM157.476 440.25C158.255 438.727 160.121 438.125 161.643 438.904L161.999 439.086C163.523 439.862 164.129 441.727 163.353 443.251C162.577 444.775 160.712 445.381 159.188 444.605L158.821 444.417C157.299 443.638 156.696 441.772 157.476 440.25ZM353.345 440.25C354.124 441.772 353.522 443.638 351.999 444.417L351.633 444.605C350.109 445.381 348.244 444.775 347.468 443.251C346.691 441.727 347.298 439.862 348.822 439.086L349.178 438.904C350.7 438.125 352.566 438.727 353.345 440.25ZM187.602 453.306C188.132 451.68 189.88 450.791 191.506 451.321L191.887 451.445C193.514 451.971 194.406 453.717 193.88 455.344C193.353 456.972 191.607 457.864 189.98 457.337L189.588 457.21C187.961 456.68 187.073 454.932 187.602 453.306ZM323.218 453.306C323.748 454.932 322.859 456.68 321.233 457.21L320.841 457.337C319.214 457.864 317.468 456.972 316.941 455.344C316.414 453.717 317.307 451.971 318.934 451.445L319.315 451.321C320.941 450.791 322.688 451.68 323.218 453.306ZM219.413 461.453C219.68 459.764 221.266 458.611 222.955 458.878L223.352 458.941C225.041 459.205 226.197 460.788 225.934 462.478C225.67 464.168 224.086 465.324 222.396 465.06L221.988 464.996C220.299 464.729 219.146 463.143 219.413 461.453ZM291.408 461.453C291.675 463.143 290.522 464.729 288.833 464.996L288.425 465.06C286.735 465.324 285.151 464.168 284.887 462.478C284.623 460.788 285.779 459.205 287.469 458.941L287.865 458.878C289.555 458.611 291.141 459.764 291.408 461.453ZM252.11 464.512C252.111 462.802 253.499 461.417 255.209 461.419H255.611C257.322 461.417 258.71 462.802 258.711 464.512C258.713 466.223 257.328 467.61 255.617 467.612H255.203C253.493 467.61 252.108 466.223 252.11 464.512Z" fill="white"/>
<path d="M262.292 464.516C262.292 468.316 259.211 471.397 255.411 471.397V471.397C251.61 471.397 248.529 468.316 248.529 464.516V464.516C248.529 460.715 251.61 457.634 255.411 457.634V457.634C259.211 457.634 262.292 460.715 262.292 464.516V464.516Z" fill="white"/>
<path d="M464.614 262.194C460.813 262.194 457.732 259.113 457.732 255.312V255.312C457.732 251.511 460.813 248.43 464.614 248.43V248.43C468.414 248.43 471.495 251.511 471.495 255.312V255.312C471.495 259.113 468.414 262.194 464.614 262.194V262.194Z" fill="white"/>
<path d="M262.292 46.1062C262.292 49.9069 259.211 52.9879 255.411 52.9879V52.9879C251.61 52.9879 248.529 49.9069 248.529 46.1062V46.1062C248.529 42.3055 251.61 39.2245 255.411 39.2245V39.2245C259.211 39.2245 262.292 42.3055 262.292 46.1062V46.1062Z" fill="white"/>
<path d="M46.2064 262.194C42.4058 262.194 39.3247 259.113 39.3247 255.312V255.312C39.3247 251.511 42.4058 248.43 46.2064 248.43V248.43C50.0071 248.43 53.0881 251.511 53.0881 255.312V255.312C53.0881 259.113 50.0071 262.194 46.2064 262.194V262.194Z" fill="white"/>
</svg>
