<svg width="136" height="48" viewBox="0 0 136 48" fill="none" xmlns="http://www.w3.org/2000/svg">
<rect width="136" height="48" rx="24" fill="#393953"/>
<g clip-path="url(#clip0_2352_24882)">
<path fill-rule="evenodd" clip-rule="evenodd" d="M23.9997 12.5C21.1509 12.5015 18.3955 13.5105 16.2263 15.3465C14.057 17.1826 12.6153 19.726 12.1589 22.522C11.7026 25.318 12.2613 28.1842 13.7353 30.6082C15.2092 33.0321 17.5022 34.8558 20.2043 35.753C20.8004 35.8636 21.025 35.4942 21.025 35.18C21.025 34.8659 21.0131 33.955 21.0091 32.9592C17.6708 33.6804 16.9654 31.5505 16.9654 31.5505C16.4209 30.1674 15.634 29.8039 15.634 29.8039C14.5451 29.065 15.7155 29.0788 15.7155 29.0788C16.9217 29.1637 17.5555 30.3097 17.5555 30.3097C18.6246 32.1333 20.3633 31.6058 21.0468 31.2976C21.1541 30.5251 21.4661 29.9995 21.8099 29.7012C19.1432 29.4008 16.3414 28.3774 16.3414 23.8054C16.3249 22.6197 16.7674 21.4731 17.5774 20.6027C17.4542 20.3024 17.0429 19.0892 17.6946 17.4414C17.6946 17.4414 18.7021 17.1214 20.9952 18.6644C22.9621 18.1296 25.0373 18.1296 27.0041 18.6644C29.2952 17.1214 30.3007 17.4414 30.3007 17.4414C30.9544 19.0853 30.5431 20.2984 30.4199 20.6027C31.2325 21.4732 31.6759 22.6219 31.6579 23.8094C31.6579 28.3912 28.8501 29.4008 26.1795 29.6952C26.6087 30.0667 26.9922 30.7918 26.9922 31.9061C26.9922 33.5026 26.9783 34.7868 26.9783 35.18C26.9783 35.4981 27.1949 35.8695 27.8029 35.753C30.5053 34.8557 32.7986 33.0317 34.2725 30.6073C35.7464 28.183 36.3049 25.3163 35.848 22.5201C35.3911 19.7238 33.9487 17.1804 31.7787 15.3446C29.6087 13.5089 26.8527 12.5005 24.0036 12.5H23.9997Z" fill="white"/>
<path d="M16.5455 29.6326C16.5197 29.6919 16.4243 29.7097 16.3468 29.6682C16.2693 29.6267 16.2117 29.5496 16.2395 29.4884C16.2673 29.4271 16.3607 29.4113 16.4382 29.4528C16.5157 29.4943 16.5753 29.5733 16.5455 29.6326Z" fill="white"/>
<path d="M17.0312 30.1711C16.9901 30.1918 16.943 30.1975 16.898 30.1874C16.8531 30.1773 16.8131 30.152 16.7848 30.1158C16.7073 30.0328 16.6914 29.9182 16.751 29.8669C16.8107 29.8155 16.918 29.8392 16.9955 29.9222C17.073 30.0052 17.0908 30.1198 17.0312 30.1711Z" fill="white"/>
<path d="M17.5049 30.8558C17.4313 30.9072 17.3061 30.8558 17.2366 30.7531C17.2174 30.7346 17.2021 30.7125 17.1916 30.6881C17.1812 30.6637 17.1758 30.6374 17.1758 30.6108C17.1758 30.5843 17.1812 30.558 17.1916 30.5335C17.2021 30.5091 17.2174 30.487 17.2366 30.4686C17.3101 30.4192 17.4353 30.4686 17.5049 30.5693C17.5744 30.6701 17.5764 30.8044 17.5049 30.8558Z" fill="white"/>
<path d="M18.1456 31.5212C18.0801 31.5943 17.9469 31.5746 17.8376 31.4758C17.7283 31.377 17.7025 31.2426 17.7681 31.1715C17.8337 31.1004 17.9668 31.1202 18.0801 31.217C18.1933 31.3138 18.2152 31.4501 18.1456 31.5212Z" fill="white"/>
<path d="M19.0462 31.9084C19.0164 32.0012 18.8812 32.0427 18.7461 32.0032C18.611 31.9637 18.5216 31.8531 18.5474 31.7582C18.5732 31.6634 18.7104 31.6199 18.8475 31.6634C18.9846 31.7069 19.072 31.8116 19.0462 31.9084Z" fill="white"/>
<path d="M20.0283 31.9747C20.0283 32.0715 19.9171 32.1545 19.774 32.1565C19.6309 32.1584 19.5137 32.0794 19.5137 31.9826C19.5137 31.8858 19.6249 31.8028 19.768 31.8008C19.9111 31.7988 20.0283 31.8759 20.0283 31.9747Z" fill="white"/>
<path d="M20.9424 31.8219C20.9603 31.9188 20.8609 32.0195 20.7178 32.0432C20.5748 32.0669 20.4496 32.0096 20.4317 31.9148C20.4138 31.82 20.5171 31.7172 20.6562 31.6915C20.7953 31.6659 20.9245 31.7251 20.9424 31.8219Z" fill="white"/>
</g>
<path d="M68.852 31H67.106L66.944 29.38C66.632 29.908 66.14 30.358 65.468 30.73C64.796 31.09 63.986 31.27 63.038 31.27C61.298 31.27 59.816 30.67 58.592 29.47C57.368 28.258 56.756 26.638 56.756 24.61C56.756 23.266 57.062 22.078 57.674 21.046C58.298 20.014 59.09 19.246 60.05 18.742C61.01 18.226 62.054 17.968 63.182 17.968C64.658 17.968 65.894 18.334 66.89 19.066C67.898 19.798 68.582 20.728 68.942 21.856L66.908 22.63C66.68 21.862 66.242 21.226 65.594 20.722C64.946 20.218 64.142 19.966 63.182 19.966C62.042 19.966 61.052 20.368 60.212 21.172C59.372 21.976 58.952 23.122 58.952 24.61C58.952 26.086 59.36 27.238 60.176 28.066C60.992 28.882 61.988 29.29 63.164 29.29C64.316 29.29 65.192 28.99 65.792 28.39C66.404 27.778 66.746 27.124 66.818 26.428H62.606V24.538H68.852V31ZM73.1075 31H71.0375V22.234H73.1075V31ZM71.1095 20.11C70.8455 19.846 70.7135 19.528 70.7135 19.156C70.7135 18.784 70.8455 18.466 71.1095 18.202C71.3735 17.926 71.6915 17.788 72.0635 17.788C72.4475 17.788 72.7715 17.92 73.0355 18.184C73.2995 18.448 73.4315 18.772 73.4315 19.156C73.4315 19.528 73.2995 19.846 73.0355 20.11C72.7715 20.374 72.4475 20.506 72.0635 20.506C71.6915 20.506 71.3735 20.374 71.1095 20.11ZM78.1951 19.552V22.234H80.0131V24.088H78.1951V28.156C78.1951 28.54 78.2851 28.822 78.4651 29.002C78.6451 29.17 78.9271 29.254 79.3111 29.254C79.5511 29.254 79.7911 29.23 80.0311 29.182V30.91C79.7191 31.042 79.2931 31.108 78.7531 31.108C77.9371 31.108 77.2951 30.88 76.8271 30.424C76.3591 29.956 76.1251 29.314 76.1251 28.498V24.088H74.5051V22.234H74.9551C75.3991 22.234 75.7351 22.108 75.9631 21.856C76.1911 21.604 76.3051 21.274 76.3051 20.866V19.552H78.1951ZM83.7484 25.852V31H81.6604V17.968H83.7484V23.08C84.3124 22.348 85.1464 21.982 86.2504 21.982C87.2824 21.982 88.0744 22.306 88.6264 22.954C89.1784 23.602 89.4544 24.436 89.4544 25.456V31H87.3664V25.816C87.3664 25.228 87.2224 24.76 86.9344 24.412C86.6464 24.052 86.1904 23.872 85.5664 23.872C85.0144 23.872 84.5764 24.058 84.2524 24.43C83.9404 24.802 83.7724 25.276 83.7484 25.852ZM97.3273 30.028C97.1233 30.412 96.7873 30.712 96.3193 30.928C95.8633 31.144 95.3713 31.252 94.8433 31.252C93.8233 31.252 93.0133 30.922 92.4133 30.262C91.8253 29.602 91.5313 28.768 91.5313 27.76V22.234H93.6193V27.382C93.6193 27.97 93.7633 28.45 94.0513 28.822C94.3393 29.194 94.7833 29.38 95.3833 29.38C95.9713 29.38 96.4213 29.2 96.7333 28.84C97.0573 28.48 97.2193 28.006 97.2193 27.418V22.234H99.3073V29.398C99.3073 29.926 99.3373 30.46 99.3973 31H97.3993C97.3513 30.736 97.3273 30.412 97.3273 30.028ZM103.792 31H101.758V17.968H103.81V23.314C104.026 22.942 104.38 22.63 104.872 22.378C105.364 22.126 105.928 22 106.564 22C107.836 22 108.826 22.432 109.534 23.296C110.254 24.148 110.614 25.24 110.614 26.572C110.614 27.928 110.236 29.044 109.48 29.92C108.736 30.784 107.74 31.216 106.492 31.216C105.244 31.216 104.344 30.754 103.792 29.83V31ZM107.842 28.624C108.286 28.12 108.508 27.442 108.508 26.59C108.508 25.738 108.292 25.072 107.86 24.592C107.428 24.1 106.858 23.854 106.15 23.854C105.466 23.854 104.902 24.1 104.458 24.592C104.014 25.072 103.792 25.738 103.792 26.59C103.792 27.43 104.014 28.102 104.458 28.606C104.902 29.11 105.466 29.362 106.15 29.362C106.846 29.362 107.41 29.116 107.842 28.624Z" fill="white"/>
<defs>
<clipPath id="clip0_2352_24882">
<rect width="24" height="24" fill="white" transform="translate(12 12)"/>
</clipPath>
</defs>
</svg>
