<svg width="149" height="48" viewBox="0 0 149 48" fill="none" xmlns="http://www.w3.org/2000/svg">
<rect width="149" height="48" rx="24" fill="#393953"/>
<g clip-path="url(#clip0_2352_24878)">
<path d="M34.2283 12H13.7717C13.3018 12 12.8512 12.1867 12.5189 12.5189C12.1867 12.8512 12 13.3018 12 13.7717V34.2283C12 34.6982 12.1867 35.1488 12.5189 35.4811C12.8512 35.8133 13.3018 36 13.7717 36H34.2283C34.6982 36 35.1488 35.8133 35.4811 35.4811C35.8133 35.1488 36 34.6982 36 34.2283V13.7717C36 13.3018 35.8133 12.8512 35.4811 12.5189C35.1488 12.1867 34.6982 12 34.2283 12ZM19.1533 32.445H15.545V20.9833H19.1533V32.445ZM17.3467 19.395C16.9374 19.3927 16.5379 19.2692 16.1987 19.0401C15.8596 18.811 15.5958 18.4865 15.4409 18.1077C15.2859 17.7288 15.2466 17.3126 15.328 16.9115C15.4094 16.5103 15.6078 16.1423 15.8982 15.8538C16.1885 15.5653 16.5578 15.3693 16.9595 15.2905C17.3611 15.2117 17.7771 15.2536 18.155 15.411C18.5328 15.5684 18.8555 15.8342 19.0825 16.1748C19.3094 16.5155 19.4303 16.9157 19.43 17.325C19.4339 17.599 19.3825 17.871 19.279 18.1248C19.1755 18.3786 19.022 18.6089 18.8276 18.8021C18.6332 18.9952 18.4018 19.1473 18.1474 19.2492C17.893 19.351 17.6207 19.4006 17.3467 19.395ZM32.4533 32.455H28.8467V26.1933C28.8467 24.3467 28.0617 23.7767 27.0483 23.7767C25.9783 23.7767 24.9283 24.5833 24.9283 26.24V32.455H21.32V20.9917H24.79V22.58H24.8367C25.185 21.875 26.405 20.67 28.2667 20.67C30.28 20.67 32.455 21.865 32.455 25.365L32.4533 32.455Z" fill="white"/>
</g>
<path d="M65.54 31H57.53V18.238H59.69V28.948H65.54V31ZM69.1524 31H67.0824V22.234H69.1524V31ZM67.1544 20.11C66.8904 19.846 66.7584 19.528 66.7584 19.156C66.7584 18.784 66.8904 18.466 67.1544 18.202C67.4184 17.926 67.7364 17.788 68.1084 17.788C68.4924 17.788 68.8164 17.92 69.0804 18.184C69.3444 18.448 69.4764 18.772 69.4764 19.156C69.4764 19.528 69.3444 19.846 69.0804 20.11C68.8164 20.374 68.4924 20.506 68.1084 20.506C67.7364 20.506 67.4184 20.374 67.1544 20.11ZM73.682 25.942V31H71.594V22.234H73.628V23.404C73.904 22.924 74.27 22.57 74.726 22.342C75.194 22.102 75.692 21.982 76.22 21.982C77.252 21.982 78.038 22.306 78.578 22.954C79.118 23.602 79.388 24.436 79.388 25.456V31H77.3V25.816C77.3 25.228 77.156 24.76 76.868 24.412C76.58 24.052 76.124 23.872 75.5 23.872C74.924 23.872 74.474 24.07 74.15 24.466C73.838 24.85 73.682 25.342 73.682 25.942ZM89.886 22.234L86.286 25.942L89.958 31H87.402L84.828 27.418L83.748 28.552V31H81.678V17.968H83.748V25.78L87.114 22.234H89.886ZM92.2531 25.654H96.5551C96.5311 25.102 96.3331 24.64 95.9611 24.268C95.6011 23.896 95.0791 23.71 94.3951 23.71C93.7711 23.71 93.2671 23.908 92.8831 24.304C92.4991 24.688 92.2891 25.138 92.2531 25.654ZM96.7891 27.94L98.5531 28.498C98.3011 29.302 97.8271 29.968 97.1311 30.496C96.4471 31.012 95.6011 31.27 94.5931 31.27C93.3451 31.27 92.2831 30.844 91.4071 29.992C90.5431 29.14 90.1111 28 90.1111 26.572C90.1111 25.228 90.5311 24.124 91.3711 23.26C92.2231 22.396 93.2251 21.964 94.3771 21.964C95.7211 21.964 96.7711 22.378 97.5271 23.206C98.2831 24.022 98.6611 25.126 98.6611 26.518C98.6611 26.89 98.6431 27.112 98.6071 27.184H92.1991C92.2231 27.844 92.4631 28.39 92.9191 28.822C93.3871 29.254 93.9451 29.47 94.5931 29.47C95.7211 29.47 96.4531 28.96 96.7891 27.94ZM101.808 26.59C101.808 27.43 102.024 28.108 102.456 28.624C102.888 29.128 103.458 29.38 104.166 29.38C104.85 29.38 105.408 29.122 105.84 28.606C106.272 28.09 106.488 27.412 106.488 26.572C106.488 25.744 106.278 25.084 105.858 24.592C105.438 24.1 104.88 23.854 104.184 23.854C103.488 23.854 102.918 24.106 102.474 24.61C102.03 25.102 101.808 25.762 101.808 26.59ZM108.504 17.968V29.398C108.504 29.986 108.534 30.52 108.594 31H106.596C106.536 30.664 106.506 30.286 106.506 29.866C106.29 30.262 105.954 30.586 105.498 30.838C105.042 31.09 104.52 31.216 103.932 31.216C102.684 31.216 101.67 30.778 100.89 29.902C100.11 29.026 99.7205 27.922 99.7205 26.59C99.7205 25.306 100.11 24.22 100.89 23.332C101.682 22.444 102.684 22 103.896 22C104.592 22 105.15 22.126 105.57 22.378C106.002 22.63 106.302 22.924 106.47 23.26V17.968H108.504ZM113.357 31H111.161V18.238H113.357V31ZM118.072 25.942V31H115.984V22.234H118.018V23.404C118.294 22.924 118.66 22.57 119.116 22.342C119.584 22.102 120.082 21.982 120.61 21.982C121.642 21.982 122.428 22.306 122.968 22.954C123.508 23.602 123.778 24.436 123.778 25.456V31H121.69V25.816C121.69 25.228 121.546 24.76 121.258 24.412C120.97 24.052 120.514 23.872 119.89 23.872C119.314 23.872 118.864 24.07 118.54 24.466C118.228 24.85 118.072 25.342 118.072 25.942Z" fill="white"/>
<defs>
<clipPath id="clip0_2352_24878">
<rect width="24" height="24" fill="white" transform="translate(12 12)"/>
</clipPath>
</defs>
</svg>
