<svg width="138" height="48" viewBox="0 0 138 48" fill="none" xmlns="http://www.w3.org/2000/svg">
<rect width="138" height="48" rx="24" fill="#393953"/>
<path d="M19.5475 33.7512C28.6042 33.7512 33.5578 26.2479 33.5578 19.741C33.5578 19.5279 33.5578 19.3157 33.5434 19.1045C34.507 18.4075 35.3389 17.5444 36 16.5557C35.1014 16.9541 34.148 17.2153 33.1718 17.3304C34.1998 16.7151 34.9692 15.7472 35.3366 14.6069C34.3701 15.1805 33.3126 15.5848 32.2099 15.8021C31.4675 15.0127 30.4856 14.49 29.4162 14.3148C28.3468 14.1397 27.2494 14.3218 26.294 14.8332C25.3385 15.3445 24.5782 16.1565 24.1307 17.1435C23.6833 18.1305 23.5735 19.2374 23.8186 20.293C21.8609 20.1948 19.9458 19.686 18.1975 18.7997C16.4492 17.9134 14.9068 16.6694 13.6704 15.1484C13.0407 16.2324 12.8479 17.5156 13.1311 18.7368C13.4143 19.958 14.1523 21.0253 15.1949 21.7215C14.4112 21.6985 13.6446 21.4871 12.96 21.1052V21.1676C12.9603 22.3044 13.3539 23.4062 14.0739 24.2859C14.7939 25.1657 15.7961 25.7693 16.9104 25.9944C16.1855 26.1922 15.4249 26.2211 14.687 26.0789C15.0018 27.0573 15.6144 27.9128 16.4392 28.5259C17.264 29.139 18.2598 29.479 19.2874 29.4985C18.2664 30.3009 17.0973 30.8942 15.8469 31.2444C14.5964 31.5947 13.2892 31.6949 12 31.5394C14.2518 32.9844 16.8719 33.7509 19.5475 33.7474" fill="white"/>
<path d="M66.692 20.272H62.534V31H60.374V20.272H56.234V18.238H66.692V20.272ZM71.7867 22.234H73.9467L76.0167 28.3L77.7627 22.234H79.8867L77.0787 31H74.9907L72.8127 24.7L70.6887 31H68.5467L65.7027 22.234H67.9347L69.7167 28.3L71.7867 22.234ZM83.2969 31H81.2269V22.234H83.2969V31ZM81.2989 20.11C81.0349 19.846 80.9029 19.528 80.9029 19.156C80.9029 18.784 81.0349 18.466 81.2989 18.202C81.5629 17.926 81.8809 17.788 82.2529 17.788C82.6369 17.788 82.9609 17.92 83.2249 18.184C83.4889 18.448 83.6209 18.772 83.6209 19.156C83.6209 19.528 83.4889 19.846 83.2249 20.11C82.9609 20.374 82.6369 20.506 82.2529 20.506C81.8809 20.506 81.5629 20.374 81.2989 20.11ZM88.3845 19.552V22.234H90.2025V24.088H88.3845V28.156C88.3845 28.54 88.4745 28.822 88.6545 29.002C88.8345 29.17 89.1165 29.254 89.5005 29.254C89.7405 29.254 89.9805 29.23 90.2205 29.182V30.91C89.9085 31.042 89.4825 31.108 88.9425 31.108C88.1265 31.108 87.4845 30.88 87.0165 30.424C86.5485 29.956 86.3145 29.314 86.3145 28.498V24.088H84.6945V22.234H85.1445C85.5885 22.234 85.9245 22.108 86.1525 21.856C86.3805 21.604 86.4945 21.274 86.4945 20.866V19.552H88.3845ZM94.7068 19.552V22.234H96.5248V24.088H94.7068V28.156C94.7068 28.54 94.7968 28.822 94.9768 29.002C95.1568 29.17 95.4388 29.254 95.8228 29.254C96.0628 29.254 96.3028 29.23 96.5428 29.182V30.91C96.2308 31.042 95.8048 31.108 95.2648 31.108C94.4488 31.108 93.8068 30.88 93.3388 30.424C92.8708 29.956 92.6368 29.314 92.6368 28.498V24.088H91.0168V22.234H91.4668C91.9108 22.234 92.2468 22.108 92.4748 21.856C92.7028 21.604 92.8168 21.274 92.8168 20.866V19.552H94.7068ZM99.7882 25.654H104.09C104.066 25.102 103.868 24.64 103.496 24.268C103.136 23.896 102.614 23.71 101.93 23.71C101.306 23.71 100.802 23.908 100.418 24.304C100.034 24.688 99.8242 25.138 99.7882 25.654ZM104.324 27.94L106.088 28.498C105.836 29.302 105.362 29.968 104.666 30.496C103.982 31.012 103.136 31.27 102.128 31.27C100.88 31.27 99.8182 30.844 98.9422 29.992C98.0782 29.14 97.6462 28 97.6462 26.572C97.6462 25.228 98.0662 24.124 98.9062 23.26C99.7582 22.396 100.76 21.964 101.912 21.964C103.256 21.964 104.306 22.378 105.062 23.206C105.818 24.022 106.196 25.126 106.196 26.518C106.196 26.89 106.178 27.112 106.142 27.184H99.7342C99.7582 27.844 99.9982 28.39 100.454 28.822C100.922 29.254 101.48 29.47 102.128 29.47C103.256 29.47 103.988 28.96 104.324 27.94ZM113.07 22.18V24.304C112.83 24.268 112.602 24.25 112.386 24.25C110.814 24.25 110.028 25.108 110.028 26.824V31H107.94V22.234H109.974V23.638C110.178 23.17 110.508 22.804 110.964 22.54C111.42 22.264 111.936 22.126 112.512 22.126C112.704 22.126 112.89 22.144 113.07 22.18Z" fill="white"/>
</svg>
