<svg width="147" height="48" viewBox="0 0 147 48" fill="none" xmlns="http://www.w3.org/2000/svg">
<rect width="147" height="48" rx="24" fill="#393953"/>
<path d="M22 25C22.4295 25.5741 22.9774 26.0491 23.6066 26.3929C24.2357 26.7367 24.9315 26.9411 25.6467 26.9923C26.3618 27.0435 27.0796 26.9403 27.7513 26.6897C28.4231 26.4392 29.0331 26.047 29.54 25.54L32.54 22.54C33.4508 21.597 33.9548 20.3339 33.9434 19.023C33.932 17.712 33.4061 16.4579 32.4791 15.5309C31.5521 14.6038 30.298 14.078 28.987 14.0666C27.676 14.0552 26.413 14.5592 25.47 15.47L23.75 17.18" stroke="white" stroke-width="2" stroke-linecap="round" stroke-linejoin="round"/>
<path d="M26.0002 22.9992C25.5707 22.4251 25.0228 21.9501 24.3936 21.6063C23.7645 21.2626 23.0687 21.0581 22.3535 21.0069C21.6384 20.9557 20.9206 21.0589 20.2489 21.3095C19.5771 21.5601 18.9671 21.9522 18.4602 22.4592L15.4602 25.4592C14.5494 26.4023 14.0454 27.6653 14.0568 28.9763C14.0682 30.2872 14.5941 31.5413 15.5211 32.4683C16.4481 33.3954 17.7022 33.9212 19.0132 33.9326C20.3242 33.944 21.5872 33.44 22.5302 32.5292L24.2402 30.8192" stroke="white" stroke-width="2" stroke-linecap="round" stroke-linejoin="round"/>
<path d="M69.338 27.634L71.84 18.238H74.072L70.49 31H68.258L65.162 21.352L62.066 31H59.852L56.234 18.238H58.502L61.058 27.562L64.046 18.238H66.296L69.338 27.634ZM76.1869 25.654H80.4889C80.4649 25.102 80.2669 24.64 79.8949 24.268C79.5349 23.896 79.0129 23.71 78.3289 23.71C77.7049 23.71 77.2009 23.908 76.8169 24.304C76.4329 24.688 76.2229 25.138 76.1869 25.654ZM80.7229 27.94L82.4869 28.498C82.2349 29.302 81.7609 29.968 81.0649 30.496C80.3809 31.012 79.5349 31.27 78.5269 31.27C77.2789 31.27 76.2169 30.844 75.3409 29.992C74.4769 29.14 74.0449 28 74.0449 26.572C74.0449 25.228 74.4649 24.124 75.3049 23.26C76.1569 22.396 77.1589 21.964 78.3109 21.964C79.6549 21.964 80.7049 22.378 81.4609 23.206C82.2169 24.022 82.5949 25.126 82.5949 26.518C82.5949 26.89 82.5769 27.112 82.5409 27.184H76.1329C76.1569 27.844 76.3969 28.39 76.8529 28.822C77.3209 29.254 77.8789 29.47 78.5269 29.47C79.6549 29.47 80.3869 28.96 80.7229 27.94ZM86.3722 31H84.3382V17.968H86.3902V23.314C86.6062 22.942 86.9602 22.63 87.4522 22.378C87.9442 22.126 88.5082 22 89.1442 22C90.4162 22 91.4062 22.432 92.1142 23.296C92.8342 24.148 93.1942 25.24 93.1942 26.572C93.1942 27.928 92.8162 29.044 92.0602 29.92C91.3162 30.784 90.3202 31.216 89.0722 31.216C87.8242 31.216 86.9242 30.754 86.3722 29.83V31ZM90.4222 28.624C90.8662 28.12 91.0882 27.442 91.0882 26.59C91.0882 25.738 90.8722 25.072 90.4402 24.592C90.0082 24.1 89.4382 23.854 88.7302 23.854C88.0462 23.854 87.4822 24.1 87.0382 24.592C86.5942 25.072 86.3722 25.738 86.3722 26.59C86.3722 27.43 86.5942 28.102 87.0382 28.606C87.4822 29.11 88.0462 29.362 88.7302 29.362C89.4262 29.362 89.9902 29.116 90.4222 28.624ZM94.1755 28.624L95.9935 28.12C96.0295 28.54 96.2035 28.894 96.5155 29.182C96.8275 29.47 97.2475 29.614 97.7755 29.614C98.1835 29.614 98.5015 29.518 98.7295 29.326C98.9695 29.134 99.0895 28.894 99.0895 28.606C99.0895 28.102 98.7475 27.778 98.0635 27.634L96.7675 27.346C96.0115 27.178 95.4295 26.866 95.0215 26.41C94.6135 25.954 94.4095 25.414 94.4095 24.79C94.4095 24.022 94.7215 23.362 95.3455 22.81C95.9695 22.246 96.7315 21.964 97.6315 21.964C98.2075 21.964 98.7175 22.048 99.1615 22.216C99.6055 22.384 99.9475 22.606 100.187 22.882C100.439 23.146 100.631 23.404 100.763 23.656C100.895 23.908 100.979 24.16 101.015 24.412L99.2515 24.916C99.2035 24.58 99.0475 24.28 98.7835 24.016C98.5315 23.74 98.1475 23.602 97.6315 23.602C97.2715 23.602 96.9715 23.704 96.7315 23.908C96.4915 24.1 96.3715 24.334 96.3715 24.61C96.3715 25.102 96.6655 25.408 97.2535 25.528L98.5855 25.798C99.4015 25.978 100.025 26.302 100.457 26.77C100.889 27.238 101.105 27.802 101.105 28.462C101.105 29.194 100.811 29.848 100.223 30.424C99.6475 30.988 98.8375 31.27 97.7935 31.27C97.1935 31.27 96.6535 31.18 96.1735 31C95.7055 30.82 95.3335 30.592 95.0575 30.316C94.7935 30.028 94.5835 29.746 94.4275 29.47C94.2835 29.182 94.1995 28.9 94.1755 28.624ZM104.994 31H102.924V22.234H104.994V31ZM102.996 20.11C102.732 19.846 102.6 19.528 102.6 19.156C102.6 18.784 102.732 18.466 102.996 18.202C103.26 17.926 103.578 17.788 103.95 17.788C104.334 17.788 104.658 17.92 104.922 18.184C105.186 18.448 105.318 18.772 105.318 19.156C105.318 19.528 105.186 19.846 104.922 20.11C104.658 20.374 104.334 20.506 103.95 20.506C103.578 20.506 103.26 20.374 102.996 20.11ZM110.082 19.552V22.234H111.9V24.088H110.082V28.156C110.082 28.54 110.172 28.822 110.352 29.002C110.532 29.17 110.814 29.254 111.198 29.254C111.438 29.254 111.678 29.23 111.918 29.182V30.91C111.606 31.042 111.18 31.108 110.64 31.108C109.824 31.108 109.182 30.88 108.714 30.424C108.246 29.956 108.012 29.314 108.012 28.498V24.088H106.392V22.234H106.842C107.286 22.234 107.622 22.108 107.85 21.856C108.078 21.604 108.192 21.274 108.192 20.866V19.552H110.082ZM115.163 25.654H119.465C119.441 25.102 119.243 24.64 118.871 24.268C118.511 23.896 117.989 23.71 117.305 23.71C116.681 23.71 116.177 23.908 115.793 24.304C115.409 24.688 115.199 25.138 115.163 25.654ZM119.699 27.94L121.463 28.498C121.211 29.302 120.737 29.968 120.041 30.496C119.357 31.012 118.511 31.27 117.503 31.27C116.255 31.27 115.193 30.844 114.317 29.992C113.453 29.14 113.021 28 113.021 26.572C113.021 25.228 113.441 24.124 114.281 23.26C115.133 22.396 116.135 21.964 117.287 21.964C118.631 21.964 119.681 22.378 120.437 23.206C121.193 24.022 121.571 25.126 121.571 26.518C121.571 26.89 121.553 27.112 121.517 27.184H115.109C115.133 27.844 115.373 28.39 115.829 28.822C116.297 29.254 116.855 29.47 117.503 29.47C118.631 29.47 119.363 28.96 119.699 27.94Z" fill="white"/>
</svg>
